<svg xmlns="http://www.w3.org/2000/svg" width="100" height="100" id="soccer"><path d="m34.274 85.22 2.923.96v3.105l-2.923.958-1.799-2.511 1.799-2.512zm40.344-53.058c-.062.512-.229.852-.493 1.01-.146.088-.271.163-2.365.163-2.494 0-6.515-.115-7.956-.159.017.499.027 1.238-.025 1.77-.074.743.072 2.486.73 4.951.667 2.501 1.074 9.48 1.09 9.776a.497.497 0 0 1-.272.473c-.049.024-1.058.528-1.59.765.013.069.031.153.046.216.085.377.202.894-.11 1.283-.32.402-1.114.643-1.668.768-.128 1.217-.566 5.119-1.134 7.317-.669 2.591-2.7 6.533-3.881 7.533-.367.31-.865.695-1.404 1.112-1.041.806-2.222 1.719-2.853 2.401-.527.572-.919 1.474-1.265 2.268-.269.617-.5 1.149-.777 1.506-.24.307-.265.561-.307.981-.035.356-.079.801-.28 1.36-.464 1.3-2.82 4.625-5.161 6.967-1.25 1.25-2.073 1.869-2.689 2.282.03.271.05.547.05.827 0 1.61-.533 3.095-1.421 4.3.009.864-.228 1.141-.868 1.473a6.831 6.831 0 0 0-.377.207c-.249.149-.535.22-.857.238A7.21 7.21 0 0 1 35.037 95a7.26 7.26 0 0 1-6.117-3.356 37.362 37.362 0 0 0-.442-.187c-1.03-.425-2.196-.906-2.674-1.725-.332-.568-.57-1.039-.381-1.471.182-.416.663-.523.95-.588.274-.061.799-.252 1.425-.517a7.275 7.275 0 0 1 4.841-6.279c.1-.825.329-2.769.626-5.753.321-3.211.715-4.782.976-5.821l.031-.122c.257-1.029.751-2.348 1.762-4.707.637-1.485.887-2.8 1.177-4.32.15-.787.309-1.62.534-2.548.382-1.574 1.386-5.434 2.453-7.247.432-.733.783-1.645 1.092-2.448.271-.703.527-1.367.809-1.852.196-.335.347-.546.505-.766.3-.416.639-.889 1.462-2.59 1.191-2.462 1.191-4.638 1.191-7.393 0-1.674-.591-2.581-.985-3-.948 1.306-3.738 5.14-4.507 6.049-.862 1.02-2.278 3.7-2.381 4.028-.053.213-.244.463-.709 1.057-.485.619-1.148 1.465-1.374 2.051-.17.443.072 1.093.25 1.568.171.458.294.788.125 1.092a.712.712 0 0 1-.409.295c-.288.058-.47.052-.811.034-.197-.01-.458-.024-.858-.024-.84 0-1.224-.359-1.596-.707-.184-.172-.374-.35-.655-.529-1.003-.639-.741-1.887-.53-2.89.053-.251.106-.501.14-.741.115-.804 1.033-1.838 2.318-3.213.529-.565 1.076-1.15 1.203-1.405l.474-.933c.9-1.768 2.774-5.447 3.233-6.561.155-.375.396-.879.665-1.439.652-1.358 1.637-3.41 1.535-4.178-.048-.361-.185-.725-.329-1.111-.315-.842-.672-1.797-.224-3.013.686-1.863 2.449-2.304 3.736-2.625a76.03 76.03 0 0 0 2.922-.827 5.707 5.707 0 0 1-.225-.64l-.05-.219c-.137-.622-.255-.986-.353-1.082-.623-.466-.853-3.003-.853-3.203 0-.543.419-.748.743-.705-.003-.689-.016-1.8-.08-2.562-.113-1.341.22-2.295 1.017-2.914.794-.618 2.703-1.655 4.275-1.917 1.576-.265 3.556.632 4.55 1.527 1.01.91 1.158 3.179 1.072 4.135-.04.436-.177.922-.286 1.312a9.827 9.827 0 0 0-.105.39c.031.032.06.069.085.109.357.58 0 2.433-.406 3.246l-.075.149c-.177.353-.377.751-.373.881.006 0 .03.022.085.053.304.173 2.148.748 3.633 1.209 1.091.34 2.163.674 2.819.903 1.034.362 2.072 1.371 3.076 2.346.721.7 1.401 1.361 1.955 1.654 1.463.775 4.483 3.543 6.155 5.215 1.287 1.293 1.597 2.955 1.469 3.987zM46.503 15.599c.351.255.522.913.678 1.619l.043.19c.028.111.101.305.18.504a.471.471 0 0 1 .136.191c.008.021.827 2.145 2.324 2.074 1.58-.069 2.136-.958 2.159-.996a.498.498 0 0 1 .678-.174.494.494 0 0 1 .181.671c-.032.057-.822 1.396-2.974 1.49-.04.002-.079.002-.118.002-1.263 0-2.12-.894-2.625-1.659-.527 1.33-.805 2.633-.592 2.899.493.617 1.968 1.432 4.377.578 2.289-.812 2.825-2 3.147-3.05.241-.786.487-1.955.594-2.481-.508-.532-.156-1.241.218-1.988l.074-.148c.339-.676.471-1.745.45-2.173-.033-.021-.059-.052-.087-.079-.184.271-.372.394-.499.076-.331-.827-.33-2.233-1.405-3.143-1.074-.91-1.572.165-3.143.744-1.138.419-2.791-.244-3.62-.643.063 1 .063 2.326.063 2.793 0 .483-.389.703-.715.656.083.721.319 1.834.476 2.047zM36.434 42.098c.009-.038.034-.103.066-.18-.589-.495-1.693-.921-2.273-1.109l-.231.25c-.789.844-1.981 2.118-2.06 2.676-.038.26-.094.532-.152.805-.2.954-.302 1.597.092 1.848.358.229.603.457.8.641.333.311.47.439.918.439.423 0 .701.015.911.026l.146.007-.033-.09c-.22-.588-.552-1.478-.247-2.271.279-.724.967-1.602 1.519-2.306.221-.283.496-.633.544-.736zM35.326 69.08a4.15 4.15 0 0 0 1.797.305c1.223-.064 2.716-.444 3.238-.587.134-.996.273-2.002.436-2.819.27-1.353 1.279-2.668 3.084-4.021.893-.669 1.67-2.135 1.678-2.148l.077-.109.186-.197c-.323-.917-.963-2.244-2.388-2.854-1.254-.538-3.237-.644-4.245-.661a60.054 60.054 0 0 0-.482 1.854 50.44 50.44 0 0 0-.523 2.498c-.3 1.579-.56 2.941-1.239 4.527-.865 2.017-1.352 3.281-1.619 4.212zm13.708 8.543a6.598 6.598 0 0 1-1.147.102c-.305 0-.631-.022-.974-.076-1.332-.21-1.843-1.994-2.038-3.2-.248.301-.528.667-.796 1.043.383 1.303 1.152 3.001 1.868 3.17.927.217 1.894.204 2.388.178.311-.488.549-.902.699-1.217zm-2.525-8.69c.217-.867.63-2.016.905-2.746-.537-.724-.963-1.407-1.002-1.765-.083-.745 2.399-4.218 2.481-4.879.083-.662 0-.993 0-.993s-1.737 1.323-2.233 2.067c-.365.548-.819.958-1.198 1.137-.289.365-.625.728-.985.998-.588.44-2.379 1.784-2.706 3.421-.174.87-.323 1.986-.467 3.065-.124.927-.241 1.802-.359 2.393-.258 1.293-1.518 5.639-2.11 6.824-.303.606-.612 1.75-.829 2.648a7.292 7.292 0 0 1 2.277 1.61c.272-.327.565-.815.772-1.555l.202-.724c.702-2.527 1.234-4.366 1.683-5.041.014-.021 1.387-2.063 2.06-2.467.265-.271 1.161-2.601 1.509-3.993zm-11.43 1.116c-.082.339-.172.739-.266 1.214.731.188 1.829.438 2.501.438.825 0 2.143-.375 2.708-.549.063-.364.128-.804.195-1.289-.728.183-1.961.457-3.042.513a5.248 5.248 0 0 1-2.096-.327zm-1.407 10.547a7.312 7.312 0 0 1 1.365-.133c.722 0 1.418.11 2.076.307.151-.754.431-1.956.833-2.758.462-.924 1.396-4.045 1.832-5.756-.709.197-1.724.437-2.463.437-.755 0-1.898-.252-2.678-.45a46.964 46.964 0 0 0-.384 2.981c-.263 2.627-.47 4.439-.581 5.372zm7.57 7.136c0-.563-.101-1.1-.24-1.619l-2.612-.646.201-2.812a6.171 6.171 0 0 0-3.204-1.091l-1.389 2.23-2.61-1.059a6.194 6.194 0 0 0-2.166 2.892l1.774 2.104-1.774 2.104a6.19 6.19 0 0 0 2.1 2.836l2.476-1.005 1.401 2.255a6.246 6.246 0 0 0 1.617-.269c-.029-.005-.057-.012-.085-.018.271-.063.531-.149.788-.243a6.153 6.153 0 0 0 1.067-.583l-.196-2.737 2.586-.64c.155-.542.266-1.106.266-1.699zm6.413-7.889a9.047 9.047 0 0 1-1.935-.217c-1.094-.257-1.86-1.786-2.293-2.942-.378 1.009-.847 2.696-1.214 4.018l-.202.726c-.276.983-.696 1.624-1.092 2.053a7.19 7.19 0 0 1 1.128 2.362c.54-.387 1.222-.945 2.196-1.92 1.292-1.294 2.502-2.799 3.412-4.08zm4.348-8.975c.186-.2.412-.415.661-.639-.791-.325-2.667-1.146-3.44-1.921a18.56 18.56 0 0 1-1.087-1.21c-.238.659-.509 1.455-.665 2.075-.106.427-.984 3.389-1.707 4.348.082 1.081.469 3.015 1.304 3.146a5.434 5.434 0 0 0 2.286-.136c.015-.112.032-.227.042-.334.047-.473.095-.961.511-1.495.2-.256.417-.759.65-1.29.376-.866.803-1.85 1.445-2.544zm20.441-41.989c-1.567-1.567-4.56-4.321-5.919-5.04-.678-.358-1.408-1.068-2.181-1.819-.884-.858-1.885-1.831-2.713-2.121-.649-.227-1.707-.556-2.787-.892-1.462-.455-2.532-.792-3.188-1.03-.128.612-.339 1.567-.556 2.271-.407 1.323-1.176 2.8-3.8 3.731a6.92 6.92 0 0 1-2.306.421c-1.488 0-2.635-.574-3.243-1.333-.601-.752-.12-2.469.309-3.617-.708.208-1.582.458-2.257.627-1.44.36-2.578.736-3.046 2.006-.321.871-.069 1.543.223 2.322.157.421.32.856.383 1.328.131.984-.624 2.656-1.625 4.739-.259.541-.492 1.025-.642 1.388-.474 1.151-2.291 4.717-3.267 6.633l-.47.926a3.428 3.428 0 0 1-.418.589c.565.206 1.389.548 2.006.995.555-1.051 1.437-2.553 2.055-3.284.888-1.049 4.735-6.367 4.774-6.421a.498.498 0 0 1 .651-.139c.075.043 1.819 1.088 1.819 4.151 0 2.882 0 5.159-1.29 7.825-.83 1.714-1.199 2.249-1.514 2.687.57.114 1.468.513 2.802 1.645 2.729 2.316 4.136 4.217 6.452 4.796 1.986.497 6.947.75 8.317.812l.038-.362a.496.496 0 0 1 .408-.44c.627-.111 1.312-.342 1.436-.483.006-.05-.052-.307-.084-.444-.081-.362-.234-1.037.369-1.278.258-.103.95-.439 1.405-.665-.089-1.428-.477-7.144-1.039-9.25-.69-2.59-.845-4.439-.758-5.306.064-.651.021-1.705.004-2.04-.03.006-.059.021-.09.021a.497.497 0 0 1-.287-.092c-.012-.008-.018-.021-.028-.03-.072.021-.144.043-.224.043a.999.999 0 0 1-.109-.008c-.713-.102-1.54-.655-2.68-1.795-.629-.629-.743-1.003-.807-1.332-.004-.053-.035-.087-.159-.156-.541-.301-.736-.697-.865-.959-.091-.186-.122-.237-.189-.271-.489-.244-1.231-.965-1.331-1.585a.783.783 0 0 1 .209-.698c.351-.349 1.363-.723 2.312-.723.509 0 .958.104 1.335.307.979.527 2.207 1.924 2.589 2.374 1.875.3 4.936.599 5.708.189a.497.497 0 0 1 .468.875c-1.044.558-3.967.252-5.575.03.156.322.334.7.5 1.064.348.766.053 1.607-.2 2.11.636.021 5.528.172 8.39.172 1.156 0 1.632-.024 1.825-.043.159-.455.159-2.122-1.14-3.421zM59.41 26.401c-.656-.354-1.975-.045-2.372.176.114.228.485.625.762.763.375.188.521.484.637.721.108.221.188.379.458.53.462.257.585.492.651.837.029.156.066.351.532.816.9.9 1.569 1.392 2.04 1.5.139-.149.349-.635.479-1.113l-.82-2.012c-.437-.525-1.587-1.798-2.367-2.218zM45.717 44.464a.531.531 0 0 0-.567.466.529.529 0 0 0 .46.579c.016.002 1.643.233 4.401 2.992 2.269 2.27 4.834 3.477 7.281 3.477.681 0 1.352-.094 2.004-.283a.525.525 0 0 0-.293-1.008c-2.623.761-5.629-.307-8.25-2.927-3.023-3.026-4.838-3.277-5.036-3.296z"></path></svg>